<?xml version="1.0" encoding="utf-8"?>
<!-- Generator: Adobe Illustrator 16.0.0, SVG Export Plug-In . SVG Version: 6.00 Build 0)  -->
<!DOCTYPE svg PUBLIC "-//W3C//DTD SVG 1.1//EN" "http://www.w3.org/Graphics/SVG/1.1/DTD/svg11.dtd">
<svg version="1.1" id="Layer_1" xmlns="http://www.w3.org/2000/svg" xmlns:xlink="http://www.w3.org/1999/xlink" x="0px" y="0px"
	 width="85px" height="85px" viewBox="0 0 85 85" enable-background="new 0 0 85 85" xml:space="preserve">
<g>
	<polyline fill="#6EACDE" points="21.313,50.999 0.034,19.168 -0.172,19.168 -0.172,26.132 -0.172,51.099 21.313,51.099 	"/>
	<polygon fill="#3E83C4" points="42.208,19.168 42.268,19.257 42.326,19.168 	"/>
	<polygon fill="#3E83C4" points="42.268,82.84 42.408,82.63 42.129,82.63 	"/>
	<polyline fill="#2265B1" points="63.488,51.099 85.173,51.099 85.173,19.168 84.487,19.189 63.488,50.999 	"/>
	<path fill="#21428B" d="M63.488,51.099l1.576,2.387l17.961,27.208c1.323-1.268,2.147-3.05,2.147-5.026V59.256v-5.771v-2.387H63.488
		z"/>
	<path fill="#3E83C4" d="M-0.172,75.667c0,1.841,0.714,3.512,1.88,4.758l19.605-29.326H-0.172v8.157V75.667z"/>
	<polygon fill="#468BC9" points="63.385,50.845 42.268,19.257 21.313,50.999 21.313,51.099 63.488,51.099 63.488,50.999 	"/>
	<polygon fill="#5EA2D8" points="42.208,19.168 6.79,19.168 0.034,19.168 21.313,50.999 42.268,19.257 	"/>
	<polygon fill="#2265B1" points="21.313,51.099 23.808,54.878 42.129,82.63 42.408,82.63 60.961,54.878 63.488,51.099 	"/>
	<polygon fill="#3E83C4" points="78.209,19.168 42.326,19.168 42.268,19.257 63.385,50.845 63.488,50.999 84.487,19.189 
		84.501,19.168 	"/>
	<path fill="#3273BA" d="M23.808,54.878l-2.495-3.779L1.708,80.425c1.271,1.356,3.077,2.205,5.082,2.205h35.339L23.808,54.878z"/>
	<path fill="#154A9F" d="M63.488,51.099l-2.527,3.779L42.408,82.63h35.801c1.87,0,3.566-0.738,4.816-1.937L63.488,51.099z"/>
	<path fill="#3E83C4" d="M33.747,10.614h17.307v8.643h8.555v-9.14c0-4.395-3.563-7.958-7.957-7.958H33.349
		c-4.395,0-7.958,3.563-7.958,7.958v9.14h8.355V10.614z"/>
</g>
</svg>
